<svg height="512pt" viewBox="-3 0 512 512" width="512pt" xmlns="http://www.w3.org/2000/svg"><path d="m289.722656 213.914062v-105.355468c0-21.691406-10.945312-41.558594-29.277344-53.152344l-10.621093-6.714844v-32.398437h-30.007813v32.398437l-10.625 6.714844c-18.332031 11.589844-29.273437 31.460938-29.273437 53.152344v105.355468zm0 0" fill="#57719a"/><path d="m412.636719 213.914062v-93.707031l-33.625-21.890625v-27.152344h-30.007813v27.152344l-33.628906 21.890625v93.707031zm0 0" fill="#36d9f6"/><path d="m133.105469 350.65625h-16.304688c-64.402343 0-116.800781-52.394531-116.800781-116.800781 0-17.339844 3.957031-34.773438 11.441406-50.414063l83.367188-183.441406h38.296875zm0 0" fill="#d8d8fb"/><path d="m386.25 389.484375c0-9.453125-7.660156-17.117187-17.113281-17.117187h-132.644531c-18.773438 0-34.007813 15.117187-34.21875 33.839843h-.007813c0 .066407.003906.128907.003906.195313s-.003906.128906-.003906.195312h.007813c.210937 18.722656 15.445312 33.839844 34.21875 33.839844h132.644531c9.453125 0 17.113281-7.664062 17.113281-17.117188 0-8.617187-6.375-15.726562-14.664062-16.917968 8.289062-1.191406 14.664062-8.300782 14.664062-16.917969zm0 0" fill="#fc657d"/><path d="m386.25 321.058594c0-9.453125-7.660156-17.117188-17.113281-17.117188h-132.644531c-18.773438 0-34.007813 15.117188-34.21875 33.839844h-.007813c0 .066406.003906.128906.003906.195312 0 .0625-.003906.128907-.003906.195313h.007813c.210937 18.722656 15.445312 33.839844 34.21875 33.839844h132.644531c9.453125 0 17.113281-7.664063 17.113281-17.117188 0-8.617187-6.375-15.726562-14.664062-16.917969 8.289062-1.191406 14.664062-8.300781 14.664062-16.917968zm0 0" fill="#fed843"/><path d="m386.25 389.484375c0-9.453125-7.660156-17.117187-17.113281-17.117187h-69.136719v68.066406h69.136719c9.453125 0 17.113281-7.660156 17.113281-17.113282 0-8.617187-6.375-15.726562-14.664062-16.917968 8.289062-1.191406 14.664062-8.300782 14.664062-16.917969zm0 0" fill="#e33a53"/><path d="m386.25 321.058594c0-9.453125-7.660156-17.117188-17.113281-17.117188h-69.136719v68.070313h69.136719c9.453125 0 17.113281-7.664063 17.113281-17.117188 0-8.617187-6.375-15.726562-14.664062-16.917969 8.289062-1.191406 14.664062-8.300781 14.664062-16.917968zm0 0" fill="#fabe2c"/><path d="m177.359375 440.4375h233.007813v30.007812h-233.007813zm0 0" fill="#fd9127"/><path d="m435.996094 148.863281v51.195313h-284.265625v-200.058594h-133.105469v29.085938h103.097656v385.722656h30.007813v-184.742188h284.265625v184.742188h30.007812v-265.945313zm0 0" fill="#fd9127"/><path d="m300 440.4375h110.367188v30.007812h-110.367188zm0 0" fill="#fc652c"/><path d="m435.996094 148.863281v51.195313h-135.996094v30.007812h135.996094v184.742188h30.007812v-265.945313zm0 0" fill="#fc652c"/><path d="m136.726562 512c-30.675781 0-55.632812-24.960938-55.632812-55.636719s24.957031-55.636719 55.632812-55.636719c30.679688 0 55.636719 24.960938 55.636719 55.636719s-24.957031 55.636719-55.636719 55.636719zm0 0" fill="#48578a"/><path d="m451 512c-30.675781 0-55.636719-24.960938-55.636719-55.636719s24.960938-55.636719 55.636719-55.636719c30.679688 0 55.636719 24.960938 55.636719 55.636719s-24.957031 55.636719-55.636719 55.636719zm0 0" fill="#2d3c72"/></svg>