<svg height="512" viewBox="0 0 64 64" width="512" xmlns="http://www.w3.org/2000/svg"><g id="bedroom-bed-hotel-2" data-name="bedroom-bed-hotel"><path d="m53 35h2v7h-2z" fill="#e9e9ea"/><path d="m51 40h6v2h-6z" fill="#898890"/><path d="m41 34v12h-36v-12a2.006 2.006 0 0 1 2-2h32a2.006 2.006 0 0 1 2 2z" fill="#cf9e76"/><path d="m3 6h40v22h-40z" fill="#27aae1"/><path d="m7 6h-4v-3h40v3h-32z" fill="#cf9e76"/><path d="m39 19-6-1-2 2-2.74-2.74 4.74-4.26z" fill="#fff"/><path d="m23.82 21.26 4.44-4 2.74 2.74 2-2 6 1 4 4v5h-36.4l14.4-9z" fill="#64c37d"/><path d="m3 57h4v4h-4z" fill="#57565c"/><path d="m39 57h4v4h-4z" fill="#57565c"/><path d="m3 52h40v5h-40z" fill="#ffeb99"/><path d="m33.5 38a2.5 2.5 0 1 1 0 5h-5a2.5 2.5 0 1 1 0-5z" fill="#fff"/><path d="m17.5 38a2.5 2.5 0 1 1 0 5h-5a2.5 2.5 0 1 1 0-5z" fill="#fff"/><path d="m43 46v3h-40v-3a2.979 2.979 0 0 1 2.06-2.84 2.653 2.653 0 0 1 .94-.16h34a2.653 2.653 0 0 1 .94.16 2.979 2.979 0 0 1 2.06 2.84z" fill="#ffeb99"/><path d="m3 49h40v3h-40z" fill="#fff"/><path d="m58 58h3v3h-3z" fill="#3e3d42"/><path d="m47 58h3v3h-3z" fill="#3e3d42"/><path d="m47 50h14v8h-3-8-3z" fill="#dfb28b"/><path d="m47 42h14v8h-14z" fill="#cf9e76"/><path d="m57 26 3 9h-6-6l3-9z" fill="#ffda44"/><circle cx="54" cy="10" fill="#2488ff" r="6"/><path d="m52 44h4v2h-4z" fill="#806749"/><path d="m52 52h4v2h-4z" fill="#806749"/><path d="m55 10v-4h-2v3h-2v2h3a1 1 0 0 0 1-1z" fill="#3e3d42"/></g></svg>